<?xml version="1.0" encoding="utf-8"?>
<!-- Generator: Adobe Illustrator 21.1.0, SVG Export Plug-In . SVG Version: 6.00 Build 0)  -->
<svg version="1.1" id="Layer_1" xmlns="http://www.w3.org/2000/svg" xmlns:xlink="http://www.w3.org/1999/xlink" x="0px" y="0px"
	 viewBox="0 0 500 500" style="enable-background:new 0 0 500 500;" xml:space="preserve">
<style type="text/css">
	.st0{fill:#EADAF7;}
</style>
<path class="st0" d="M53,377.5h99.1c0.4,0,0.7-0.2,0.9-0.5l36.8-67.7c0.2-0.3,0.2-0.7,0-0.9l-48.9-91.2c-0.4-0.7-1.4-0.7-1.8,0
	L52.1,376C51.8,376.6,52.3,377.5,53,377.5z"/>
<path class="st0" d="M173.7,377.5h97.8c0.4,0,0.7-0.2,0.9-0.5l36.8-67.9c0.4-0.7,1.4-0.7,1.7,0l36.8,67.9c0.2,0.3,0.5,0.5,0.9,0.5
	H447c0.7,0,1.2-0.8,0.9-1.5L311.2,123.1c-0.4-0.7-1.4-0.7-1.7,0L172.8,376C172.4,376.7,172.9,377.5,173.7,377.5z"/>
</svg>
